{
  "accessors": [
    {
      "bufferView": 2,
      "componentType": 5126,
      "count": 11,
      "max": [
        -4.2877402305603027,
        2.9181900024414062,
        12.634699821472168
      ],
      "min": [
        -11.288700103759766,
        2.5572500228881836,
        -6.4356698989868164
      ],
      "type": "VEC3"
    },
    {
      "bufferView": 2,
      "byteOffset": 132,
      "componentType": 5126,
      "count": 11,
      "max": [
        -0.067395985126495361,
        0.99621874094009399,
        0.054826583713293076
      ],
      "min": [
        -0.44975689053535461,
        0.86315983533859253,
        -0.30927386879920959
      ],
      "type": "VEC3"
    },
    {
      "bufferView": 1,
      "componentType": 5126,
      "count": 11,
      "max": [
        0,
        0
      ],
      "min": [
        0,
        0
      ],
      "type": "VEC2"
    },
    {
      "bufferView": 0,
      "componentType": 5125,
      "count": 21,
      "max": [
        10
      ],
      "min": [
        0
      ],
      "type": "SCALAR"
    },
    {
      "bufferView": 2,
      "byteOffset": 264,
      "componentType": 5126,
      "count": 18550,
      "max": [
        8.8868799209594727,
        4.6306300163269043,
        20.118799209594727
      ],
      "min": [
        -15.562399864196777,
        -15.987700462341309,
        -6.6590499877929688
      ],
      "type": "VEC3"
    },
    {
      "bufferView": 2,
      "byteOffset": 222864,
      "componentType": 5126,
      "count": 18550,
      "max": [
        0.99984449148178101,
        0.953960120677948,
        0.99998313188552856
      ],
      "min": [
        -0.99980950355529785,
        -0.99997889995574951,
        -0.9999082088470459
      ],
      "type": "VEC3"
    },
    {
      "bufferView": 3,
      "componentType": 5126,
      "count": 18550,
      "max": [
        0.99997544288635254,
        0.98749613761901855,
        0.9979856014251709,
        1
      ],
      "min": [
        -0.99997478723526001,
        -0.99406188726425171,
        -0.99988365173339844,
        -1
      ],
      "type": "VEC4"
    },
    {
      "bufferView": 1,
      "byteOffset": 88,
      "componentType": 5126,
      "count": 18550,
      "max": [
        0.98027700185775757,
        0.99801898002624512
      ],
      "min": [
        0.0021521099843084812,
        0.016682000830769539
      ],
      "type": "VEC2"
    },
    {
      "bufferView": 0,
      "byteOffset": 84,
      "componentType": 5125,
      "count": 100455,
      "max": [
        18549
      ],
      "min": [
        0
      ],
      "type": "SCALAR"
    },
    {
      "bufferView": 2,
      "byteOffset": 445464,
      "componentType": 5126,
      "count": 1413,
      "max": [
        8.6901798248291016,
        2.8150699138641357,
        11.69320011138916
      ],
      "min": [
        -14.5,
        -15.215200424194336,
        -6.4407501220703125
      ],
      "type": "VEC3"
    },
    {
      "bufferView": 2,
      "byteOffset": 462420,
      "componentType": 5126,
      "count": 1413,
      "max": [
        0.97403061389923096,
        0.953960120677948,
        0.17542198300361633
      ],
      "min": [
        -0.87664973735809326,
        -0.99963134527206421,
        -0.99910110235214233
      ],
      "type": "VEC3"
    },
    {
      "bufferView": 3,
      "byteOffset": 296800,
      "componentType": 5126,
      "count": 1413,
      "max": [
        0.99996381998062134,
        0.57806086540222168,
        0.99652105569839478,
        1
      ],
      "min": [
        -0.97375887632369995,
        -0.55767345428466797,
        -0.94197916984558105,
        -1
      ],
      "type": "VEC4"
    },
    {
      "bufferView": 1,
      "byteOffset": 148488,
      "componentType": 5126,
      "count": 1413,
      "max": [
        0.9676470160484314,
        0.99168699979782104
      ],
      "min": [
        0.0085959397256374359,
        0.44328299164772034
      ],
      "type": "VEC2"
    },
    {
      "bufferView": 0,
      "byteOffset": 401904,
      "componentType": 5125,
      "count": 8019,
      "max": [
        1412
      ],
      "min": [
        0
      ],
      "type": "SCALAR"
    }
  ],
  "asset": {
    "extras": {
      "author": "alban (https://sketchfab.com/alban)",
      "license": "CC-BY-4.0 (http://creativecommons.org/licenses/by/4.0/)",
      "source": "https://sketchfab.com/models/0edad579dcd9431e9b91c1fff4b84700",
      "title": "Club chair"
    },
    "generator": "Sketchfab-3.47.8",
    "version": "2.0"
  },
  "bufferViews": [
    {
      "buffer": 0,
      "byteLength": 433980,
      "byteOffset": 0,
      "name": "floatBufferViews",
      "target": 34963
    },
    {
      "buffer": 0,
      "byteLength": 159792,
      "byteOffset": 433980,
      "byteStride": 8,
      "name": "floatBufferViews",
      "target": 34962
    },
    {
      "buffer": 0,
      "byteLength": 479376,
      "byteOffset": 593772,
      "byteStride": 12,
      "name": "floatBufferViews",
      "target": 34962
    },
    {
      "buffer": 0,
      "byteLength": 319408,
      "byteOffset": 1073148,
      "byteStride": 16,
      "name": "floatBufferViews",
      "target": 34962
    }
  ],
  "buffers": [
    {
      "byteLength": 1392556,
      "uri": "scene.bin"
    }
  ],
  "extensionsUsed": [
    "KHR_materials_unlit"
  ],
  "images": [
    {
      "uri": "textures/Texture_0_baseColor.jpeg"
    },
    {
      "uri": "textures/Texture_1_baseColor.jpeg"
    }
  ],
  "materials": [
    {
      "doubleSided": true,
      "emissiveFactor": [
        0,
        0,
        0
      ],
      "extensions": {
        "KHR_materials_unlit": {}
      },
      "name": "Texture_0",
      "pbrMetallicRoughness": {
        "baseColorFactor": [
          1,
          1,
          1,
          1
        ],
        "baseColorTexture": {
          "index": 0,
          "texCoord": 0
        },
        "metallicFactor": 0,
        "roughnessFactor": 1
      }
    },
    {
      "doubleSided": true,
      "emissiveFactor": [
        0,
        0,
        0
      ],
      "extensions": {
        "KHR_materials_unlit": {}
      },
      "name": "Texture_1",
      "pbrMetallicRoughness": {
        "baseColorFactor": [
          1,
          1,
          1,
          1
        ],
        "baseColorTexture": {
          "index": 1,
          "texCoord": 0
        },
        "metallicFactor": 0,
        "roughnessFactor": 1
      }
    }
  ],
  "meshes": [
    {
      "primitives": [
        {
          "attributes": {
            "NORMAL": 1,
            "POSITION": 0,
            "TEXCOORD_0": 2
          },
          "indices": 3,
          "material": 0,
          "mode": 4
        }
      ]
    },
    {
      "primitives": [
        {
          "attributes": {
            "NORMAL": 5,
            "POSITION": 4,
            "TANGENT": 6,
            "TEXCOORD_0": 7
          },
          "indices": 8,
          "material": 0,
          "mode": 4
        }
      ]
    },
    {
      "primitives": [
        {
          "attributes": {
            "NORMAL": 10,
            "POSITION": 9,
            "TANGENT": 11,
            "TEXCOORD_0": 12
          },
          "indices": 13,
          "material": 1,
          "mode": 4
        }
      ]
    }
  ],
  "nodes": [
    {
      "children": [
        1
      ],
      "name": "RootNode (gltf orientation matrix)",
      "rotation": [
        -0.70710678118654746,
        -0,
        -0,
        0.70710678118654757
      ]
    },
    {
      "children": [
        2
      ],
      "matrix": [
        1,
        0,
        0,
        0,
        0,
        0,
        -1,
        0,
        0,
        1,
        0,
        0,
        0,
        0,
        0,
        1
      ],
      "name": "RootNode (model correction matrix)"
    },
    {
      "children": [
        3,
        4,
        5
      ],
      "name": "sculpt.obj.cleaner.materialmerger.gles"
    },
    {
      "mesh": 0,
      "name": ""
    },
    {
      "mesh": 1,
      "name": ""
    },
    {
      "mesh": 2,
      "name": ""
    }
  ],
  "samplers": [
    {
      "magFilter": 9729,
      "minFilter": 9987,
      "wrapS": 10497,
      "wrapT": 10497
    }
  ],
  "scene": 0,
  "scenes": [
    {
      "name": "OSG_Scene",
      "nodes": [
        0
      ]
    }
  ],
  "textures": [
    {
      "sampler": 0,
      "source": 0
    },
    {
      "sampler": 0,
      "source": 1
    }
  ]
}

