{
  "accessors": [
    {
      "bufferView": 2,
      "componentType": 5126,
      "count": 12514,
      "max": [
        1.2199579477310181,
        1.2723430395126343,
        0.54643398523330688
      ],
      "min": [
        -1.1496059894561768,
        -1.1014649868011475,
        -1.1799989938735962
      ],
      "type": "VEC3"
    },
    {
      "bufferView": 2,
      "byteOffset": 150168,
      "componentType": 5126,
      "count": 12514,
      "max": [
        0.99974888563156128,
        0.99988830089569092,
        0.99952524900436401
      ],
      "min": [
        -0.99994635581970215,
        -0.99911355972290039,
        -0.99994736909866333
      ],
      "type": "VEC3"
    },
    {
      "bufferView": 3,
      "componentType": 5126,
      "count": 12514,
      "max": [
        0.99994015693664551,
        0.99928903579711914,
        0.99987375736236572,
        1
      ],
      "min": [
        -0.99987345933914185,
        -0.9992251992225647,
        -0.999839186668396,
        1
      ],
      "type": "VEC4"
    },
    {
      "bufferView": 1,
      "componentType": 5126,
      "count": 12514,
      "max": [
        0.99993699789047241,
        0.93207097053527832
      ],
      "min": [
        5.199999941396527e-05,
        3.7000001611886546e-05
      ],
      "type": "VEC2"
    },
    {
      "bufferView": 0,
      "componentType": 5125,
      "count": 60000,
      "max": [
        12513
      ],
      "min": [
        0
      ],
      "type": "SCALAR"
    }
  ],
  "asset": {
    "extras": {
      "author": "alban (https://sketchfab.com/alban)",
      "license": "CC-BY-4.0 (http://creativecommons.org/licenses/by/4.0/)",
      "source": "https://sketchfab.com/3d-models/vienna-coffee-with-chantilly-cd87fcf156eb4379b3f57e738d82d4f3",
      "title": "Vienna coffee with Chantilly"
    },
    "generator": "Sketchfab-6.0.0",
    "version": "2.0"
  },
  "bufferViews": [
    {
      "buffer": 0,
      "byteLength": 240000,
      "byteOffset": 0,
      "name": "floatBufferViews",
      "target": 34963
    },
    {
      "buffer": 0,
      "byteLength": 100112,
      "byteOffset": 240000,
      "byteStride": 8,
      "name": "floatBufferViews",
      "target": 34962
    },
    {
      "buffer": 0,
      "byteLength": 300336,
      "byteOffset": 340112,
      "byteStride": 12,
      "name": "floatBufferViews",
      "target": 34962
    },
    {
      "buffer": 0,
      "byteLength": 200224,
      "byteOffset": 640448,
      "byteStride": 16,
      "name": "floatBufferViews",
      "target": 34962
    }
  ],
  "buffers": [
    {
      "byteLength": 840672,
      "uri": "scene.bin"
    }
  ],
  "extensionsUsed": [
    "KHR_materials_unlit"
  ],
  "images": [
    {
      "uri": "textures/model_baseColor.jpeg"
    }
  ],
  "materials": [
    {
      "doubleSided": true,
      "emissiveFactor": [
        0,
        0,
        0
      ],
      "extensions": {
        "KHR_materials_unlit": {}
      },
      "name": "model",
      "pbrMetallicRoughness": {
        "baseColorFactor": [
          1,
          1,
          1,
          1
        ],
        "baseColorTexture": {
          "index": 0,
          "texCoord": 0
        },
        "metallicFactor": 0,
        "roughnessFactor": 1
      }
    }
  ],
  "meshes": [
    {
      "primitives": [
        {
          "attributes": {
            "NORMAL": 1,
            "POSITION": 0,
            "TANGENT": 2,
            "TEXCOORD_0": 3
          },
          "indices": 4,
          "material": 0,
          "mode": 4
        }
      ]
    }
  ],
  "nodes": [
    {
      "children": [
        1
      ],
      "name": "RootNode (gltf orientation matrix)",
      "rotation": [
        -0.70710678118654746,
        -0,
        -0,
        0.70710678118654757
      ]
    },
    {
      "children": [
        2
      ],
      "matrix": [
        -0.99188464879989624,
        0.0032345680519938469,
        0.12709973752498627,
        0,
        -6.5052130349130266e-19,
        0.99967634677886963,
        -0.025440815836191177,
        0,
        -0.12714089453220367,
        -0.02523435465991497,
        -0.99156361818313599,
        0,
        0.029784705489873886,
        -0.0080799330025911331,
        -0.6331905722618103,
        1
      ],
      "name": "RootNode (model correction matrix)"
    },
    {
      "children": [
        3
      ],
      "name": "model.obj.cleaner.materialmerger.gles"
    },
    {
      "mesh": 0,
      "name": ""
    }
  ],
  "samplers": [
    {
      "magFilter": 9729,
      "minFilter": 9987,
      "wrapS": 10497,
      "wrapT": 10497
    }
  ],
  "scene": 0,
  "scenes": [
    {
      "name": "OSG_Scene",
      "nodes": [
        0
      ]
    }
  ],
  "textures": [
    {
      "sampler": 0,
      "source": 0
    }
  ]
}

